<svg version="1.1" id="Layer_1" xmlns="http://www.w3.org/2000/svg" xmlns:xlink="http://www.w3.org/1999/xlink" x="0px" y="0px"
	 width="100%" viewBox="0 0 500 243" enable-background="new 0 0 500 243" xml:space="preserve">
<path fill="#49025D" opacity="1.000000" stroke="none" 
	d="
M303.000000,244.000000 
	C202.033813,244.000000 101.567619,244.000000 1.050714,244.000000 
	C1.050714,163.061081 1.050714,82.122131 1.050714,1.091587 
	C167.549500,1.091587 334.099060,1.091587 500.824310,1.091587 
	C500.824310,81.999702 500.824310,162.999817 500.824310,244.000000 
	C435.122192,244.000000 369.311096,244.000000 303.000000,244.000000 
M131.067932,64.025589 
	C125.536148,56.125401 120.109123,48.147610 114.370804,40.400402 
	C113.399651,39.089256 111.099358,38.125206 109.395035,38.097069 
	C97.578529,37.901947 85.757195,37.984043 73.937576,38.024609 
	C73.062218,38.027611 72.188133,38.401215 70.888153,38.700417 
	C77.244759,47.859451 83.301323,56.586170 89.344948,66.210091 
	C89.381264,73.784775 89.417580,81.359451 88.456192,88.904305 
	C81.982956,88.902122 75.501778,88.699570 69.038765,88.955490 
	C62.874043,89.199600 56.523335,87.781860 50.518654,89.854218 
	C50.532597,90.588348 50.546539,91.322487 50.560482,92.056618 
	C63.502220,92.056618 76.443962,92.056618 89.349510,92.981911 
	C89.349091,97.972794 89.348679,102.963676 88.371056,108.066620 
	C66.874214,108.084106 45.377262,108.074677 23.880730,108.164818 
	C21.941057,108.172951 20.004078,108.823486 18.065849,109.175690 
	C18.157860,110.026527 18.249872,110.877365 18.341885,111.728210 
	C42.011414,111.835213 65.680939,111.942223 89.343964,112.976448 
	C89.403839,117.962372 89.463715,122.948296 88.515785,127.938187 
	C83.373459,127.941841 78.227066,127.819595 73.089958,127.985115 
	C68.108368,128.145599 62.970131,127.251923 58.120960,128.610413 
	C58.152302,129.431610 58.183647,130.252808 58.214989,131.074005 
	C68.652344,131.074005 79.089699,131.074005 89.394073,131.991730 
	C89.394073,137.938477 89.394073,143.885223 89.394073,150.123993 
	C102.560646,150.123993 115.185562,150.123993 129.243210,150.123993 
	C129.367264,159.945343 130.132645,169.546646 129.396927,179.031494 
	C128.845428,186.141144 124.625000,188.735809 117.358871,189.009979 
	C106.130722,189.433670 98.068657,183.703430 91.398842,175.534988 
	C87.869568,171.212753 84.812836,166.504684 81.313316,161.652649 
	C75.488068,174.503540 66.610847,184.477600 56.293274,193.368912 
	C55.262657,194.257050 55.641251,196.780441 55.365818,198.544907 
	C57.147289,198.626770 59.322395,199.393890 60.626514,198.644760 
	C63.171276,197.182938 65.428391,195.057938 67.448898,192.877899 
	C72.505623,187.421890 77.363632,181.781693 82.461250,176.035172 
	C83.242966,176.998993 84.056412,178.000641 84.868500,179.003403 
	C91.517815,187.213959 99.364212,193.602783 110.069984,195.711578 
	C126.314064,198.911240 136.299225,191.840363 137.195312,175.390884 
	C137.652542,166.997253 136.246841,158.502136 136.659515,150.096344 
	C148.417496,150.063339 160.175461,150.030350 172.170761,150.635101 
	C192.034561,166.391663 207.161896,185.829849 217.457077,209.176758 
	C220.536041,205.684677 223.117432,201.883347 226.521255,199.080963 
	C233.295059,193.504105 240.614410,188.593552 247.478775,183.119812 
	C248.788742,182.075226 249.040604,179.703735 249.780670,177.944458 
	C247.899460,177.567871 245.946503,176.697952 244.157867,176.958023 
	C242.480820,177.201874 240.870804,178.497650 239.416183,179.579208 
	C232.633774,184.622253 225.915405,189.751465 218.977646,194.998459 
	C209.606934,178.460617 197.677170,163.425156 184.625671,150.124741 
	C193.920349,150.118942 203.216995,150.002487 212.508682,150.166153 
	C215.850006,150.225006 217.194107,149.326035 217.174210,145.718521 
	C217.025955,118.831512 217.059555,91.943504 217.491333,64.561272 
	C223.638290,55.884857 229.785263,47.208443 236.334610,37.964058 
	C222.455994,37.964058 209.652328,37.910084 196.850525,38.040009 
	C195.428879,38.054436 193.452728,38.707561 192.691483,39.758327 
	C186.665375,48.076389 180.871582,56.562740 174.068665,64.965302 
	C160.030304,64.988632 145.991943,65.011963 131.567474,64.841576 
	C131.567474,64.841576 131.157227,64.706284 131.067932,64.025589 
M447.930939,131.959610 
	C451.203735,132.305923 454.479797,132.974548 457.748749,132.941437 
	C470.336823,132.813934 479.963562,119.342514 476.239929,107.286385 
	C472.281372,94.469833 459.052765,88.187630 446.799744,93.767578 
	C442.152985,95.883698 438.275635,96.742363 433.789062,93.561378 
	C432.070312,92.342796 429.382629,92.041626 427.148926,92.078384 
	C418.686279,92.217659 410.204132,92.387833 401.780853,93.131180 
	C398.193329,93.447777 394.765320,95.330276 391.200531,96.252609 
	C389.541870,96.681747 387.597290,96.979912 386.015381,96.525757 
	C382.865051,95.621323 379.911560,93.212151 376.813568,93.095016 
	C366.667328,92.711357 356.491638,93.022202 346.330505,93.227074 
	C345.119812,93.251480 343.977081,94.536232 342.717743,94.762192 
	C340.899567,95.088417 338.959595,95.274330 337.148773,95.003654 
	C331.311981,94.131180 325.538818,92.434814 319.688324,92.153229 
	C312.383026,91.801628 308.504425,96.120491 307.967957,103.515549 
	C307.842987,105.238762 307.267181,106.929268 306.898804,108.634819 
	C306.399536,108.651779 305.900299,108.668747 305.401062,108.685707 
	C303.769714,105.463478 302.127045,102.246902 300.509857,99.017601 
	C298.447083,94.898491 295.262604,92.971741 290.523102,92.924271 
	C284.080597,92.859741 281.022247,96.774292 278.583099,101.841652 
	C277.738037,103.597374 276.646942,105.234673 275.316803,107.533371 
	C273.227722,103.903961 272.104156,101.064430 270.231110,98.862366 
	C264.333893,91.929276 250.708237,89.373016 242.664734,93.878777 
	C240.642487,95.011581 238.444168,97.760597 238.274796,99.919678 
	C237.695679,107.302483 238.098877,114.756210 237.911591,122.177444 
	C237.680725,131.325623 243.923477,132.788147 251.037079,131.793518 
	C253.143234,131.499054 255.289505,131.318253 257.413086,131.352509 
	C265.645416,131.485275 273.876587,131.855392 282.106689,131.816345 
	C283.747284,131.808578 285.315216,130.022308 287.034668,129.713760 
	C289.254395,129.315460 291.636810,129.286728 293.870239,129.622955 
	C297.534790,130.174637 301.102570,131.435120 304.773315,131.859650 
	C308.156677,132.250946 311.630859,131.776382 315.048706,131.970505 
	C319.564392,132.226974 323.258484,131.693527 326.383301,127.512032 
	C328.270203,124.987106 331.961487,123.491478 335.140381,122.411804 
	C336.373291,121.993065 339.223053,123.568169 339.974426,124.966667 
	C343.673981,131.852554 345.797485,132.975998 353.437561,131.742584 
	C355.957306,131.335815 358.743286,131.367249 361.199646,132.002319 
	C368.951447,134.006485 376.531464,133.499664 383.555542,130.005112 
	C387.315582,128.134460 389.807404,127.765518 393.404785,130.425262 
	C399.239197,134.738922 406.235687,131.937454 408.485474,125.033142 
	C408.995911,123.466629 409.591125,121.927757 410.629333,119.031494 
	C413.189819,125.298737 413.296448,131.543488 420.662720,132.052811 
	C432.273468,132.855621 430.690613,123.184196 432.284210,117.706497 
	C437.296295,122.372116 442.257446,126.990341 447.930939,131.959610 
z"/>
<path fill="#8C6996" opacity="1.000000" stroke="none" 
	d="
M171.933441,149.997345 
	C160.175461,150.030350 148.417496,150.063339 135.755707,150.143982 
	C130.763184,150.405807 132.054840,147.310181 132.048828,145.325302 
	C131.967896,118.562103 131.971161,91.798668 131.953583,65.035286 
	C145.991943,65.011963 160.030304,64.988632 175.005783,64.976151 
	C189.640640,65.009941 203.338394,65.032883 217.036133,65.055817 
	C217.059555,91.943504 217.025955,118.831512 217.174210,145.718521 
	C217.194107,149.326035 215.850006,150.225006 212.508682,150.166153 
	C203.216995,150.002487 193.920349,150.118942 183.701630,150.146912 
	C179.162872,150.111832 175.548157,150.054581 171.933441,149.997345 
M179.964218,81.589661 
	C179.964218,86.685707 179.964218,91.781746 179.964218,96.874847 
	C191.001022,96.874847 201.260681,96.874847 211.654633,96.874847 
	C211.654633,89.222305 211.654633,81.864578 211.654633,74.456345 
	C200.989746,74.456345 190.738892,74.456345 179.964203,74.456345 
	C179.964203,76.709816 179.964203,78.665070 179.964218,81.589661 
z"/>
<path fill="#FDFDFE" opacity="1.000000" stroke="none" 
	d="
M131.760529,64.938431 
	C131.971161,91.798668 131.967896,118.562103 132.048828,145.325302 
	C132.054840,147.310181 130.763184,150.405807 135.267548,150.122253 
	C136.246841,158.502136 137.652542,166.997253 137.195312,175.390884 
	C136.299225,191.840363 126.314064,198.911240 110.069984,195.711578 
	C99.364212,193.602783 91.517815,187.213959 84.868500,179.003403 
	C84.056412,178.000641 83.242966,176.998993 82.461250,176.035172 
	C77.363632,181.781693 72.505623,187.421890 67.448898,192.877899 
	C65.428391,195.057938 63.171276,197.182938 60.626514,198.644760 
	C59.322395,199.393890 57.147289,198.626770 55.365818,198.544907 
	C55.641251,196.780441 55.262657,194.257050 56.293274,193.368912 
	C66.610847,184.477600 75.488068,174.503540 81.313316,161.652649 
	C84.812836,166.504684 87.869568,171.212753 91.398842,175.534988 
	C98.068657,183.703430 106.130722,189.433670 117.358871,189.009979 
	C124.625000,188.735809 128.845428,186.141144 129.396927,179.031494 
	C130.132645,169.546646 129.367264,159.945343 129.243210,150.123993 
	C115.185562,150.123993 102.560646,150.123993 89.394073,150.123993 
	C89.394073,143.885223 89.394073,137.938477 89.878273,131.601456 
	C93.078537,131.050766 95.794594,130.890350 98.510658,130.729935 
	C98.514343,129.937759 98.518028,129.145599 98.521713,128.353424 
	C95.522339,128.213684 92.522964,128.073959 89.523590,127.934219 
	C89.463715,122.948296 89.403839,117.962372 89.777695,112.478127 
	C93.701111,111.694191 97.190788,111.408585 100.680473,111.122971 
	C100.666008,110.318550 100.651550,109.514130 100.637093,108.709709 
	C96.874153,108.458000 93.111206,108.206284 89.348267,107.954559 
	C89.348679,102.963676 89.349091,97.972794 89.765556,92.534134 
	C91.807655,91.846581 93.433701,91.606804 95.059746,91.367027 
	C95.083069,90.759850 95.106384,90.152679 95.129707,89.545509 
	C93.237770,89.341721 91.345833,89.137932 89.453896,88.934143 
	C89.417580,81.359451 89.381264,73.784775 89.789978,65.676437 
	C103.875748,64.997284 117.516487,64.851784 131.157227,64.706284 
	C131.157227,64.706284 131.567474,64.841576 131.760529,64.938431 
z"/>
<path fill="#450258" opacity="1.000000" stroke="none" 
	d="
M447.574768,131.784088 
	C442.257446,126.990341 437.296295,122.372116 432.284210,117.706497 
	C430.690613,123.184196 432.273468,132.855621 420.662720,132.052811 
	C413.296448,131.543488 413.189819,125.298737 410.629333,119.031494 
	C409.591125,121.927757 408.995911,123.466629 408.485474,125.033142 
	C406.235687,131.937454 399.239197,134.738922 393.404785,130.425262 
	C389.807404,127.765518 387.315582,128.134460 383.555542,130.005112 
	C376.531464,133.499664 368.951447,134.006485 361.199646,132.002319 
	C358.743286,131.367249 355.957306,131.335815 353.437561,131.742584 
	C345.797485,132.975998 343.673981,131.852554 339.974426,124.966667 
	C339.223053,123.568169 336.373291,121.993065 335.140381,122.411804 
	C331.961487,123.491478 328.270203,124.987106 326.383301,127.512032 
	C323.258484,131.693527 319.564392,132.226974 315.048706,131.970505 
	C311.630859,131.776382 308.156677,132.250946 304.773315,131.859650 
	C301.102570,131.435120 297.534790,130.174637 293.870239,129.622955 
	C291.636810,129.286728 289.254395,129.315460 287.034668,129.713760 
	C285.315216,130.022308 283.747284,131.808578 282.106689,131.816345 
	C273.876587,131.855392 265.645416,131.485275 257.413086,131.352509 
	C255.289505,131.318253 253.143234,131.499054 251.037079,131.793518 
	C243.923477,132.788147 237.680725,131.325623 237.911591,122.177444 
	C238.098877,114.756210 237.695679,107.302483 238.274796,99.919678 
	C238.444168,97.760597 240.642487,95.011581 242.664734,93.878777 
	C250.708237,89.373016 264.333893,91.929276 270.231110,98.862366 
	C272.104156,101.064430 273.227722,103.903961 275.316803,107.533371 
	C276.646942,105.234673 277.738037,103.597374 278.583099,101.841652 
	C281.022247,96.774292 284.080597,92.859741 290.523102,92.924271 
	C295.262604,92.971741 298.447083,94.898491 300.509857,99.017601 
	C302.127045,102.246902 303.769714,105.463478 305.401062,108.685707 
	C305.900299,108.668747 306.399536,108.651779 306.898804,108.634819 
	C307.267181,106.929268 307.842987,105.238762 307.967957,103.515549 
	C308.504425,96.120491 312.383026,91.801628 319.688324,92.153229 
	C325.538818,92.434814 331.311981,94.131180 337.148773,95.003654 
	C338.959595,95.274330 340.899567,95.088417 342.717743,94.762192 
	C343.977081,94.536232 345.119812,93.251480 346.330505,93.227074 
	C356.491638,93.022202 366.667328,92.711357 376.813568,93.095016 
	C379.911560,93.212151 382.865051,95.621323 386.015381,96.525757 
	C387.597290,96.979912 389.541870,96.681747 391.200531,96.252609 
	C394.765320,95.330276 398.193329,93.447777 401.780853,93.131180 
	C410.204132,92.387833 418.686279,92.217659 427.148926,92.078384 
	C429.382629,92.041626 432.070312,92.342796 433.789062,93.561378 
	C438.275635,96.742363 442.152985,95.883698 446.799744,93.767578 
	C459.052765,88.187630 472.281372,94.469833 476.239929,107.286385 
	C479.963562,119.342514 470.336823,132.813934 457.748749,132.941437 
	C454.479797,132.974548 451.203735,132.305923 447.574768,131.784088 
M282.997284,127.003372 
	C282.997284,127.003372 282.974731,126.985535 283.754974,126.968307 
	C288.323212,124.591980 292.923523,125.203018 297.829132,126.802994 
	C297.829132,126.802994 297.997833,127.045029 298.219971,127.721313 
	C300.336426,129.495132 302.329407,129.985229 304.713562,127.027382 
	C305.509583,126.684990 306.305634,126.342598 307.871613,126.005806 
	C309.621063,126.322136 311.370483,126.638458 313.569336,127.013222 
	C313.569336,127.013222 313.997681,127.161278 314.198578,127.817329 
	C316.732178,130.358536 319.142242,131.616104 321.611542,126.884903 
	C321.797974,126.255775 321.984406,125.626656 322.846527,124.864151 
	C324.414276,123.984421 325.884827,122.727577 327.567535,122.294052 
	C333.126068,120.862007 338.037872,114.184174 344.768799,120.866608 
	C344.232086,128.358749 345.631470,129.213974 353.115784,126.888168 
	C353.513092,126.764709 353.805115,126.302444 354.993530,125.999046 
	C356.691589,126.000450 358.389648,126.001846 360.431641,126.469193 
	C360.954224,126.704704 361.476807,126.940224 362.230011,127.872833 
	C367.326752,131.616028 378.137085,130.892731 384.348724,125.956741 
	C387.492889,123.458290 390.526031,121.803238 394.768188,123.887695 
	C395.856628,130.668594 400.788300,125.079056 403.615753,127.334969 
	C403.615753,116.462654 403.615753,106.325211 403.615753,96.297318 
	C400.500854,96.297318 397.739838,96.297318 394.986145,96.297318 
	C394.834930,98.372772 394.703094,100.181854 393.826965,102.044975 
	C391.563202,102.363121 389.299408,102.681267 386.471344,102.611847 
	C381.384277,97.028656 367.888947,93.456863 361.497467,96.187241 
	C360.761383,96.501686 360.544342,98.031067 359.237000,98.998749 
	C357.540070,98.999847 355.843170,99.000954 353.983887,98.150558 
	C351.706512,93.438980 347.967590,97.239700 345.044861,96.123222 
	C344.843506,97.736259 344.702393,98.866844 343.842499,100.011284 
	C342.179810,100.769196 340.517120,101.527107 338.256409,101.911926 
	C331.442657,92.868095 322.033936,95.916847 313.158875,96.191383 
	C313.033508,97.680870 312.936035,98.839119 312.152313,100.259277 
	C311.063751,106.406761 309.975220,112.554253 308.886688,118.701744 
	C308.424103,118.921608 307.961517,119.141464 307.498932,119.361328 
	C305.711426,116.224091 303.942596,113.076019 302.130280,109.953163 
	C300.775299,107.618370 299.364258,105.316116 297.469299,102.483498 
	C296.464172,100.304878 295.459045,98.126259 294.537384,96.128555 
	C285.956512,95.884857 285.957397,95.885208 282.964996,103.563660 
	C282.784821,104.026062 282.561707,104.471664 282.378510,104.933014 
	C279.525604,112.117523 276.675964,119.303352 273.855621,126.413139 
	C274.267456,126.701775 274.394470,126.861397 274.540802,126.881668 
	C275.356445,126.994652 276.176697,127.073875 277.245972,127.826546 
	C279.432312,129.384995 281.494781,130.105591 282.997284,127.003372 
M426.871094,120.717567 
	C428.558258,114.868538 428.436615,108.245689 434.631134,103.514893 
	C434.631134,101.106865 434.631134,98.698845 434.631134,96.392258 
	C425.514740,96.392258 416.806213,96.392258 408.278870,96.392258 
	C408.278870,99.042740 408.278870,101.308990 408.278870,103.975220 
	C411.303772,103.975220 414.047638,103.975220 417.214111,103.975220 
	C417.214111,111.795006 417.214111,119.204002 417.214111,126.726425 
	C420.389893,126.726425 423.122925,126.726425 425.874084,126.726425 
	C425.984528,124.629776 426.080231,122.813477 426.871094,120.717567 
M266.660278,120.796112 
	C267.040344,118.172394 267.420410,115.548676 267.959473,112.138321 
	C270.695709,102.919762 267.085663,96.979889 257.787872,96.125938 
	C252.879608,95.675133 247.895859,96.046211 243.062241,96.046211 
	C242.429443,97.850700 241.906265,99.342651 240.752914,101.436577 
	C240.501999,106.509514 240.065475,111.582954 240.079147,116.655174 
	C240.085892,119.159492 240.923477,121.661560 241.762741,124.644791 
	C242.509262,125.490089 243.255783,126.335388 244.245087,127.834641 
	C246.369034,129.428558 248.375916,129.993668 250.568985,127.018410 
	C250.961685,126.981453 251.354401,126.944496 252.592850,126.956406 
	C254.933502,127.530853 257.263580,128.499344 259.617950,128.562592 
	C261.730652,128.619339 263.870117,127.680695 266.751251,127.031487 
	C267.106415,126.449577 267.868652,125.752045 267.742249,125.306915 
	C267.321716,123.826332 266.582001,122.436409 266.660278,120.796112 
M445.174622,125.468140 
	C448.366211,129.908386 456.384155,131.461014 462.547821,128.520813 
	C463.945129,127.854271 464.810211,126.072014 466.258026,124.228638 
	C471.483582,120.251831 472.593079,114.744186 471.962799,108.645744 
	C471.360291,102.816093 466.207458,97.357307 460.173828,96.017975 
	C452.110748,94.228142 445.431580,96.500359 441.940247,101.633545 
	C436.365234,109.830276 437.380127,117.912560 445.174622,125.468140 
z"/>
<path fill="#8D6A97" opacity="1.000000" stroke="none" 
	d="
M131.112579,64.365936 
	C117.516487,64.851784 103.875748,64.997284 89.796448,65.227837 
	C83.301323,56.586170 77.244759,47.859451 70.888153,38.700417 
	C72.188133,38.401215 73.062218,38.027611 73.937576,38.024609 
	C85.757195,37.984043 97.578529,37.901947 109.395035,38.097069 
	C111.099358,38.125206 113.399651,39.089256 114.370804,40.400402 
	C120.109123,48.147610 125.536148,56.125401 131.112579,64.365936 
z"/>
<path fill="#FEFDFE" opacity="1.000000" stroke="none" 
	d="
M217.263733,64.808548 
	C203.338394,65.032883 189.640640,65.009941 175.474655,64.992188 
	C180.871582,56.562740 186.665375,48.076389 192.691483,39.758327 
	C193.452728,38.707561 195.428879,38.054436 196.850525,38.040009 
	C209.652328,37.910084 222.455994,37.964058 236.334610,37.964058 
	C229.785263,47.208443 223.638290,55.884857 217.263733,64.808548 
z"/>
<path fill="#F8F5F9" opacity="1.000000" stroke="none" 
	d="
M172.052094,150.316223 
	C175.548157,150.054581 179.162872,150.111832 183.211700,150.112427 
	C197.677170,163.425156 209.606934,178.460617 218.977646,194.998459 
	C225.915405,189.751465 232.633774,184.622253 239.416183,179.579208 
	C240.870804,178.497650 242.480820,177.201874 244.157867,176.958023 
	C245.946503,176.697952 247.899460,177.567871 249.780670,177.944458 
	C249.040604,179.703735 248.788742,182.075226 247.478775,183.119812 
	C240.614410,188.593552 233.295059,193.504105 226.521255,199.080963 
	C223.117432,201.883347 220.536041,205.684677 217.457077,209.176758 
	C207.161896,185.829849 192.034561,166.391663 172.052094,150.316223 
z"/>
<path fill="#8D6A97" opacity="1.000000" stroke="none" 
	d="
M88.859665,108.010590 
	C93.111206,108.206284 96.874153,108.458000 100.637093,108.709709 
	C100.651550,109.514130 100.666008,110.318550 100.680473,111.122971 
	C97.190788,111.408585 93.701111,111.694191 89.780945,112.014511 
	C65.680939,111.942223 42.011414,111.835213 18.341885,111.728210 
	C18.249872,110.877365 18.157860,110.026527 18.065849,109.175690 
	C20.004078,108.823486 21.941057,108.172951 23.880730,108.164818 
	C45.377262,108.074677 66.874214,108.084106 88.859665,108.010590 
z"/>
<path fill="#8D6A97" opacity="1.000000" stroke="none" 
	d="
M88.955048,88.919220 
	C91.345833,89.137932 93.237770,89.341721 95.129707,89.545509 
	C95.106384,90.152679 95.083069,90.759850 95.059746,91.367027 
	C93.433701,91.606804 91.807655,91.846581 89.783646,92.071487 
	C76.443962,92.056618 63.502220,92.056618 50.560482,92.056618 
	C50.546539,91.322487 50.532597,90.588348 50.518654,89.854218 
	C56.523335,87.781860 62.874043,89.199600 69.038765,88.955490 
	C75.501778,88.699570 81.982956,88.902122 88.955048,88.919220 
z"/>
<path fill="#9675A0" opacity="1.000000" stroke="none" 
	d="
M89.019684,127.936203 
	C92.522964,128.073959 95.522339,128.213684 98.521713,128.353424 
	C98.518028,129.145599 98.514343,129.937759 98.510658,130.729935 
	C95.794594,130.890350 93.078537,131.050766 89.944763,131.142593 
	C79.089699,131.074005 68.652344,131.074005 58.214989,131.074005 
	C58.183647,130.252808 58.152302,129.431610 58.120960,128.610413 
	C62.970131,127.251923 68.108368,128.145599 73.089958,127.985115 
	C78.227066,127.819595 83.373459,127.941841 89.019684,127.936203 
z"/>
<path fill="#FEFDFE" opacity="1.000000" stroke="none" 
	d="
M179.964203,81.104988 
	C179.964203,78.665070 179.964203,76.709816 179.964203,74.456345 
	C190.738892,74.456345 200.989746,74.456345 211.654633,74.456345 
	C211.654633,81.864578 211.654633,89.222305 211.654633,96.874847 
	C201.260681,96.874847 191.001022,96.874847 179.964218,96.874847 
	C179.964218,91.781746 179.964218,86.685707 179.964203,81.104988 
z"/>
<path fill="#FAF8FA" opacity="1.000000" stroke="none" 
	d="
M445.116180,124.720078 
	C437.380127,117.912560 436.365234,109.830276 441.940247,101.633545 
	C445.431580,96.500359 452.110748,94.228142 460.173828,96.017975 
	C466.207458,97.357307 471.360291,102.816093 471.962799,108.645744 
	C472.593079,114.744186 471.483582,120.251831 465.725098,124.608772 
	C458.445557,128.978943 451.762085,128.251205 445.116180,124.720078 
M451.159088,105.498848 
	C448.266449,107.946053 447.226349,111.175819 449.002563,114.395569 
	C450.060669,116.313538 452.493683,118.568176 454.394989,118.649422 
	C456.787109,118.751640 460.510681,117.392136 461.399139,115.564445 
	C462.542816,113.211777 462.373444,109.261444 461.091827,106.916046 
	C459.210510,103.473152 455.382935,103.406471 451.159088,105.498848 
z"/>
<path fill="#F6F4F7" opacity="1.000000" stroke="none" 
	d="
M360.086670,98.997147 
	C360.544342,98.031067 360.761383,96.501686 361.497467,96.187241 
	C367.888947,93.456863 381.384277,97.028656 386.818420,103.184418 
	C392.503479,116.975769 386.099701,126.751068 371.935303,127.004303 
	C368.623352,127.063515 365.311371,127.118698 361.999390,127.175735 
	C361.476807,126.940224 360.954224,126.704704 360.379761,125.780586 
	C360.247467,116.393707 360.167084,107.695427 360.086670,98.997147 
M369.817322,108.612076 
	C369.817322,112.063652 369.817322,115.515228 369.817322,118.934792 
	C376.790802,119.200974 379.571533,116.910179 379.528046,111.429115 
	C379.485199,106.030106 376.441833,103.680008 369.995453,104.297806 
	C369.936829,105.390114 369.876007,106.523170 369.817322,108.612076 
z"/>
<path fill="#F6F4F7" opacity="1.000000" stroke="none" 
	d="
M244.002289,127.180695 
	C243.255783,126.335388 242.509262,125.490089 241.952911,124.171844 
	C242.223068,120.231110 242.468124,116.757233 242.340469,113.297096 
	C242.186981,109.136818 241.716370,104.988235 241.383057,100.834595 
	C241.906265,99.342651 242.429443,97.850700 243.062241,96.046211 
	C247.895859,96.046211 252.879608,95.675133 257.787872,96.125938 
	C267.085663,96.979889 270.695709,102.919762 267.594849,112.713181 
	C266.065765,114.548920 264.901306,115.809799 263.603546,117.215012 
	C264.463989,118.598640 265.214294,119.805191 265.964630,121.011734 
	C266.582001,122.436409 267.321716,123.826332 267.742249,125.306915 
	C267.868652,125.752045 267.106415,126.449577 265.949097,127.036163 
	C260.497742,127.939835 257.820557,125.922401 256.295258,121.546623 
	C255.772522,120.046928 254.170639,118.923409 253.061783,117.628029 
	C252.623550,117.921539 252.185333,118.215042 251.747101,118.508553 
	C251.747101,121.308212 251.747101,124.107872 251.747101,126.907532 
	C251.354401,126.944496 250.961685,126.981453 249.859512,127.029221 
	C247.434128,127.086914 245.718201,127.133804 244.002289,127.180695 
M259.265686,108.112274 
	C258.752441,103.301392 257.622955,102.667397 252.065216,104.035530 
	C252.065216,106.139297 252.065216,108.228996 252.065216,111.464165 
	C254.788712,110.431221 256.917145,109.623962 259.265686,108.112274 
z"/>
<path fill="#F9F7FA" opacity="1.000000" stroke="none" 
	d="
M276.995392,127.164642 
	C276.176697,127.073875 275.356445,126.994652 274.540802,126.881668 
	C274.394470,126.861397 274.267456,126.701775 273.855621,126.413139 
	C276.675964,119.303352 279.525604,112.117523 282.378510,104.933014 
	C282.561707,104.471664 282.784821,104.026062 282.964996,103.563660 
	C285.957397,95.885208 285.956512,95.884857 294.537384,96.128555 
	C295.459045,98.126259 296.464172,100.304878 297.730011,103.116684 
	C301.027710,111.166649 304.064697,118.583420 307.101685,126.000198 
	C306.305634,126.342598 305.509583,126.684990 303.935150,127.023079 
	C301.437103,127.027527 299.717468,127.036285 297.997833,127.045029 
	C297.997833,127.045029 297.829132,126.802994 297.561615,126.435318 
	C296.505127,122.470917 294.761261,121.110275 290.621185,120.818314 
	C285.346252,120.446304 284.259460,123.392479 282.974731,126.985535 
	C282.974731,126.985535 282.997284,127.003372 282.564087,127.001251 
	C280.419067,127.054298 278.707214,127.109467 276.995392,127.164642 
z"/>
<path fill="#FDFCFD" opacity="1.000000" stroke="none" 
	d="
M322.170868,124.997536 
	C321.984406,125.626656 321.797974,126.255775 320.873962,126.949158 
	C318.090179,127.062706 316.043915,127.111992 313.997681,127.161278 
	C313.997681,127.161278 313.569336,127.013222 313.293121,126.520737 
	C312.957458,117.351295 312.897980,108.674332 312.838531,99.997375 
	C312.936035,98.839119 313.033508,97.680870 313.158875,96.191383 
	C322.033936,95.916847 331.442657,92.868095 338.581390,102.530602 
	C338.333801,106.801102 339.038879,112.080048 336.910858,113.750992 
	C333.013580,116.811211 327.443268,117.740761 322.170868,119.707901 
	C322.170868,120.723061 322.170868,122.860298 322.170868,124.997536 
M326.926636,110.785210 
	C329.705078,110.002251 331.199646,107.695518 329.550049,105.653809 
	C328.188568,103.968712 325.114868,103.667000 322.799927,102.752266 
	C323.067871,106.587631 319.292786,111.592255 326.926636,110.785210 
z"/>
<path fill="#FAF8FA" opacity="1.000000" stroke="none" 
	d="
M426.175903,120.997169 
	C426.080231,122.813477 425.984528,124.629776 425.874084,126.726425 
	C423.122925,126.726425 420.389893,126.726425 417.214111,126.726425 
	C417.214111,119.204002 417.214111,111.795006 417.214111,103.975220 
	C414.047638,103.975220 411.303772,103.975220 408.278870,103.975220 
	C408.278870,101.308990 408.278870,99.042740 408.278870,96.392258 
	C416.806213,96.392258 425.514740,96.392258 434.631134,96.392258 
	C434.631134,98.698845 434.631134,101.106865 433.863953,103.718170 
	C430.856293,103.921448 428.615845,103.921448 426.175903,103.921448 
	C426.175903,109.917793 426.175903,115.457481 426.175903,120.997169 
z"/>
<path fill="#FDFDFE" opacity="1.000000" stroke="none" 
	d="
M354.146149,125.997910 
	C353.805115,126.302444 353.513092,126.764709 353.115784,126.888168 
	C345.631470,129.213974 344.232086,128.358749 344.765625,119.975891 
	C344.695404,112.722595 344.628357,106.360016 344.561279,99.997429 
	C344.702393,98.866844 344.843506,97.736259 345.044861,96.123222 
	C347.967590,97.239700 351.706512,93.438980 353.987549,99.039207 
	C354.042877,108.617874 354.094513,117.307892 354.146149,125.997910 
z"/>
<path fill="#FDFDFE" opacity="1.000000" stroke="none" 
	d="
M394.571289,101.990944 
	C394.703094,100.181854 394.834930,98.372772 394.986145,96.297318 
	C397.739838,96.297318 400.500854,96.297318 403.615753,96.297318 
	C403.615753,106.325211 403.615753,116.462654 403.615753,127.334969 
	C400.788300,125.079056 395.856628,130.668594 394.769836,122.989136 
	C394.704712,115.390694 394.637970,108.690819 394.571289,101.990944 
z"/>
<path fill="#440655" opacity="1.000000" stroke="none" 
	d="
M394.199097,102.017960 
	C394.637970,108.690819 394.704712,115.390694 394.671448,122.550369 
	C390.526031,121.803238 387.492889,123.458290 384.348724,125.956741 
	C378.137085,130.892731 367.326752,131.616028 362.114685,127.524277 
	C365.311371,127.118698 368.623352,127.063515 371.935303,127.004303 
	C386.099701,126.751068 392.503479,116.975769 387.100555,103.378197 
	C389.299408,102.681267 391.563202,102.363121 394.199097,102.017960 
z"/>
<path fill="#410253" opacity="1.000000" stroke="none" 
	d="
M344.201904,100.004356 
	C344.628357,106.360016 344.695404,112.722595 344.664276,119.544830 
	C338.037872,114.184174 333.126068,120.862007 327.567535,122.294052 
	C325.884827,122.727577 324.414276,123.984421 322.508698,124.930847 
	C322.170868,122.860298 322.170868,120.723061 322.170868,119.707901 
	C327.443268,117.740761 333.013580,116.811211 336.910858,113.750992 
	C339.038879,112.080048 338.333801,106.801102 338.880402,102.717148 
	C340.517120,101.527107 342.179810,100.769196 344.201904,100.004356 
z"/>
<path fill="#400252" opacity="1.000000" stroke="none" 
	d="
M354.569824,125.998474 
	C354.094513,117.307892 354.042877,108.617874 354.068726,99.464951 
	C355.843170,99.000954 357.540070,98.999847 359.661835,98.997955 
	C360.167084,107.695427 360.247467,116.393707 360.207794,125.547607 
	C358.389648,126.001846 356.691589,126.000450 354.569824,125.998474 
z"/>
<path fill="#460758" opacity="1.000000" stroke="none" 
	d="
M312.495422,100.128326 
	C312.897980,108.674332 312.957458,117.351295 313.068420,126.491516 
	C311.370483,126.638458 309.621063,126.322136 307.486633,126.003006 
	C304.064697,118.583420 301.027710,111.166649 297.984436,103.374619 
	C299.364258,105.316116 300.775299,107.618370 302.130280,109.953163 
	C303.942596,113.076019 305.711426,116.224091 307.498932,119.361328 
	C307.961517,119.141464 308.424103,118.921608 308.886688,118.701744 
	C309.975220,112.554253 311.063751,106.406761 312.495422,100.128326 
z"/>
<path fill="#410253" opacity="1.000000" stroke="none" 
	d="
M252.169983,126.931969 
	C251.747101,124.107872 251.747101,121.308212 251.747101,118.508553 
	C252.185333,118.215042 252.623550,117.921539 253.061783,117.628029 
	C254.170639,118.923409 255.772522,120.046928 256.295258,121.546623 
	C257.820557,125.922401 260.497742,127.939835 265.572388,127.111008 
	C263.870117,127.680695 261.730652,128.619339 259.617950,128.562592 
	C257.263580,128.499344 254.933502,127.530853 252.169983,126.931969 
z"/>
<path fill="#470A58" opacity="1.000000" stroke="none" 
	d="
M283.364868,126.976921 
	C284.259460,123.392479 285.346252,120.446304 290.621185,120.818314 
	C294.761261,121.110275 296.505127,122.470917 297.414368,126.444061 
	C292.923523,125.203018 288.323212,124.591980 283.364868,126.976921 
z"/>
<path fill="#400252" opacity="1.000000" stroke="none" 
	d="
M426.523499,120.857368 
	C426.175903,115.457481 426.175903,109.917793 426.175903,103.921448 
	C428.615845,103.921448 430.856293,103.921448 433.548157,103.988098 
	C428.436615,108.245689 428.558258,114.868538 426.523499,120.857368 
z"/>
<path fill="#4C125D" opacity="1.000000" stroke="none" 
	d="
M445.145386,125.094109 
	C451.762085,128.251205 458.445557,128.978943 465.556213,124.896118 
	C464.810211,126.072014 463.945129,127.854271 462.547821,128.520813 
	C456.384155,131.461014 448.366211,129.908386 445.145386,125.094109 
z"/>
<path fill="#410253" opacity="1.000000" stroke="none" 
	d="
M241.067993,101.135590 
	C241.716370,104.988235 242.186981,109.136818 242.340469,113.297096 
	C242.468124,116.757233 242.223068,120.231110 241.764114,123.931778 
	C240.923477,121.661560 240.085892,119.159492 240.079147,116.655174 
	C240.065475,111.582954 240.501999,106.509514 241.067993,101.135590 
z"/>
<path fill="#480C59" opacity="1.000000" stroke="none" 
	d="
M266.312439,120.903923 
	C265.214294,119.805191 264.463989,118.598640 263.603546,117.215012 
	C264.901306,115.809799 266.065765,114.548920 267.515350,113.106506 
	C267.420410,115.548676 267.040344,118.172394 266.312439,120.903923 
z"/>
<path fill="#460758" opacity="1.000000" stroke="none" 
	d="
M314.098145,127.489304 
	C316.043915,127.111992 318.090179,127.062706 320.569489,127.087921 
	C319.142242,131.616104 316.732178,130.358536 314.098145,127.489304 
z"/>
<path fill="#410253" opacity="1.000000" stroke="none" 
	d="
M244.123688,127.507668 
	C245.718201,127.133804 247.434128,127.086914 249.574188,127.110008 
	C248.375916,129.993668 246.369034,129.428558 244.123688,127.507668 
z"/>
<path fill="#470A58" opacity="1.000000" stroke="none" 
	d="
M277.120667,127.495590 
	C278.707214,127.109467 280.419067,127.054298 282.559570,126.988327 
	C281.494781,130.105591 279.432312,129.384995 277.120667,127.495590 
z"/>
<path fill="#470A58" opacity="1.000000" stroke="none" 
	d="
M298.108887,127.383179 
	C299.717468,127.036285 301.437103,127.027527 303.580353,127.091873 
	C302.329407,129.985229 300.336426,129.495132 298.108887,127.383179 
z"/>
<path fill="#480C59" opacity="1.000000" stroke="none" 
	d="
M451.485474,105.294144 
	C455.382935,103.406471 459.210510,103.473152 461.091827,106.916046 
	C462.373444,109.261444 462.542816,113.211777 461.399139,115.564445 
	C460.510681,117.392136 456.787109,118.751640 454.394989,118.649422 
	C452.493683,118.568176 450.060669,116.313538 449.002563,114.395569 
	C447.226349,111.175819 448.266449,107.946053 451.485474,105.294144 
z"/>
<path fill="#440655" opacity="1.000000" stroke="none" 
	d="
M369.816254,108.134155 
	C369.876007,106.523170 369.936829,105.390114 369.995453,104.297806 
	C376.441833,103.680008 379.485199,106.030106 379.528046,111.429115 
	C379.571533,116.910179 376.790802,119.200974 369.817322,118.934792 
	C369.817322,115.515228 369.817322,112.063652 369.816254,108.134155 
z"/>
<path fill="#4A1659" opacity="1.000000" stroke="none" 
	d="
M259.155640,108.464493 
	C256.917145,109.623962 254.788712,110.431221 252.065216,111.464165 
	C252.065216,108.228996 252.065216,106.139297 252.065216,104.035530 
	C257.622955,102.667397 258.752441,103.301392 259.155640,108.464493 
z"/>
<path fill="#4E1B5C" opacity="1.000000" stroke="none" 
	d="
M326.512482,110.846497 
	C319.292786,111.592255 323.067871,106.587631 322.799927,102.752266 
	C325.114868,103.667000 328.188568,103.968712 329.550049,105.653809 
	C331.199646,107.695518 329.705078,110.002251 326.512482,110.846497 
z"/>
</svg>