<svg width="113" height="106" viewBox="0 0 113 106" fill="none" xmlns="http://www.w3.org/2000/svg">
<path d="M92.1142 70.1671C92.2406 69.9482 92.3295 69.6951 92.3746 69.4255C92.4197 69.1558 92.42 68.8763 92.3753 68.6066C92.3306 68.3368 92.2421 68.0834 92.1161 67.8642C91.99 67.645 91.8294 67.4653 91.6456 67.3377L91.9257 63.0357L90.0061 62.1711L89.6745 68.2538C89.5344 68.6797 89.5163 69.1593 89.6236 69.6018C89.7309 70.0442 89.9562 70.4189 90.2568 70.6547C90.5574 70.8905 90.9125 70.9712 91.2547 70.8813C91.5969 70.7915 91.9026 70.5375 92.1137 70.1673L92.1142 70.1671Z" fill="#FFB8B8"/>
<path d="M101.691 103.614H99.9641L99.1423 94.7273H101.693L101.691 103.614Z" fill="#FFB8B8"/>
<path d="M98.7298 102.956H102.062V105.753H96.6316C96.6316 105.011 96.8526 104.3 97.2461 103.775C97.6396 103.251 98.1733 102.956 98.7298 102.956Z" fill="#2F2E41"/>
<path d="M97.7696 97.7174L96.0919 98.2672L93.7029 89.8994L96.1794 89.0879L97.7696 97.7174Z" fill="#FFB8B8"/>
<path d="M94.7991 97.9413L98.0349 96.8793L98.5364 99.5957L93.2632 101.326C93.1302 100.606 93.2173 99.8445 93.5053 99.2097C93.7934 98.5748 94.2587 98.1186 94.7991 97.9413V97.9413Z" fill="#2F2E41"/>
<path d="M99.6696 100.781C99.5118 100.781 99.3595 100.704 99.2422 100.563C99.1249 100.422 99.051 100.228 99.0348 100.019L97.0469 75.3226L95.3168 82.8748L97.7673 94.6705C97.8095 94.8727 97.7941 95.0885 97.7243 95.2765C97.6544 95.4646 97.5349 95.6116 97.3887 95.6893L95.4404 96.7284C95.3602 96.7712 95.2743 96.7918 95.1879 96.7891C95.1016 96.7864 95.0165 96.7603 94.9379 96.7126C94.8593 96.6648 94.7888 96.5963 94.7306 96.5112C94.6723 96.4261 94.6277 96.3261 94.5993 96.2173L91.5961 84.729C91.2674 83.4746 91.1219 82.1479 91.1676 80.8205L91.5868 68.4224L102.627 69.0457L102.455 99.7202C102.453 99.9337 102.391 100.139 102.281 100.295C102.172 100.451 102.023 100.547 101.863 100.564L99.7193 100.779C99.7026 100.78 99.686 100.781 99.6696 100.781Z" fill="#2F2E41"/>
<path d="M97.8412 40.9841C99.8915 40.9841 101.554 38.7681 101.554 36.0345C101.554 33.301 99.8915 31.085 97.8412 31.085C95.791 31.085 94.1289 33.301 94.1289 36.0345C94.1289 38.7681 95.791 40.9841 97.8412 40.9841Z" fill="#FFB8B8"/>
<path d="M100.571 69.8521C99.5936 69.8521 98.3796 69.7455 97.1225 69.6353C95.4055 69.4845 93.6302 69.3288 92.3048 69.4311C92.1258 69.4548 91.9453 69.417 91.7804 69.3213C91.6155 69.2255 91.4717 69.0751 91.3628 68.8842C89.9966 66.5518 92.1034 57.4564 92.1941 57.0704L93.9087 46.9001L93.9825 46.9223L93.9087 46.9001C94.2866 44.6632 95.4914 43.0132 97.0545 42.594C98.5176 42.2022 99.9328 42.9831 100.84 44.6848C100.889 44.7751 100.937 44.8677 100.985 44.9627C103.94 50.7981 102.268 65.2961 102.156 66.231C102.313 66.4803 103.157 67.8899 102.925 68.8691C102.83 69.2675 102.574 69.539 102.163 69.6752C101.639 69.8136 101.105 69.8727 100.571 69.8515L100.571 69.8521Z" fill="#2B2B2F"/>
<path d="M92.3645 69.8566C92.0282 69.8566 91.5746 69.6911 90.9631 69.3528C90.7003 69.2069 89.9004 68.7633 90.8715 57.4485C91.3485 51.8906 92.0319 46.3713 92.0387 46.3163L92.0452 46.2631L92.082 46.241C92.0996 46.2303 93.8447 45.1638 94.1482 43.7933C94.1583 43.7459 94.1701 43.6998 94.1836 43.6552C94.2671 43.3506 94.4356 43.1007 94.654 42.9577C94.8723 42.8147 95.1237 42.7897 95.3556 42.8878C95.6005 42.9659 95.814 43.1653 95.9527 43.4455C96.0915 43.7258 96.145 44.0659 96.1025 44.3968C95.9969 45.2908 95.7936 46.1592 95.4993 46.9747C94.6781 49.2337 94.1218 55.2225 94.1163 55.2828C94.0849 55.7943 93.3397 67.9125 93.1961 68.832C93.146 69.1533 93.0538 69.5462 92.7831 69.7369C92.6532 69.8223 92.5096 69.8638 92.3648 69.8578L92.3645 69.8566Z" fill="#2F2E41"/>
<path d="M96.4199 69.3923C96.3521 69.3923 96.2862 69.3622 96.2327 69.3067C95.1405 68.2001 96.908 54.7869 97.9557 50.159C98.1657 49.232 98.3525 48.4386 98.5114 47.8C98.8008 46.654 99.0027 45.4721 99.1143 44.2721C99.172 43.622 99.2973 43.2508 99.4977 43.137C99.6369 43.0578 99.8 43.1116 99.9844 43.2968C100.953 43.2331 101.894 43.7603 102.766 44.3409L103.55 44.8628L104.431 65.6495C104.406 66.9761 102.445 67.9126 101.589 67.9724C100.216 68.0685 97.7487 68.3668 96.6619 69.2841C96.5907 69.3502 96.5068 69.3877 96.4201 69.3921L96.4199 69.3923Z" fill="#2F2E41"/>
<path d="M91.5144 65.4921C91.5014 65.4921 91.4884 65.4921 91.4753 65.4904L89.6966 65.3445C89.608 65.3373 89.5215 65.3056 89.4427 65.2514C89.3638 65.1972 89.2943 65.1217 89.2385 65.0297C89.1828 64.9377 89.142 64.8312 89.1187 64.717C89.0955 64.6029 89.0904 64.4835 89.1036 64.3666L89.9085 57.2571L91.4236 47.2818C91.4609 47.0361 91.5365 46.8036 91.6456 46.5993C91.7546 46.3951 91.8946 46.2237 92.0565 46.0962C92.2184 45.9687 92.3986 45.8881 92.5854 45.8594C92.7722 45.8307 92.9615 45.8547 93.1409 45.9298V45.9298C93.4476 46.0603 93.7092 46.3326 93.8785 46.6977C94.0478 47.0628 94.1136 47.4965 94.0641 47.9206L92.8604 57.9161L92.1477 64.7571C92.1258 64.9606 92.0498 65.1467 91.9335 65.2816C91.8172 65.4166 91.6684 65.4912 91.5142 65.4921H91.5144Z" fill="#2F2E41"/>
<path d="M97.5907 57.7104C97.6992 57.475 97.8451 57.2742 98.0181 57.1222C98.191 56.9701 98.3869 56.8705 98.5919 56.8302C98.7969 56.79 99.006 56.8102 99.2045 56.8894C99.403 56.9686 99.5861 57.1049 99.7408 57.2886L102.657 55.4104L103.946 57.4949L99.7991 60.0702C99.5504 60.3963 99.2206 60.5894 98.8722 60.613C98.5238 60.6365 98.181 60.4889 97.9088 60.198C97.6366 59.9071 97.4539 59.4932 97.3953 59.0348C97.3366 58.5763 97.4062 58.105 97.5907 57.7104V57.7104Z" fill="#FFB8B8"/>
<path d="M101.642 59.7274C101.498 59.7274 101.359 59.663 101.246 59.5445C101.133 59.426 101.054 59.2604 101.02 59.0743L100.597 56.7266C100.565 56.55 100.576 56.3642 100.629 56.1967C100.681 56.0291 100.773 55.8886 100.89 55.7957L103.445 53.7571L102.139 47.3822C102.026 46.8363 102.078 46.2531 102.283 45.7575C102.489 45.2619 102.831 44.8932 103.238 44.7304C103.645 44.5676 104.083 44.6236 104.46 44.8864C104.836 45.1492 105.12 45.598 105.251 46.1366L106.693 52.0059C106.87 52.7214 106.872 53.4935 106.697 54.2101C106.523 54.9267 106.181 55.5504 105.723 55.9906L102.016 59.5656C101.908 59.6707 101.777 59.7274 101.642 59.7274V59.7274Z" fill="#2F2E41"/>
<path d="M74.0426 0H2.52112C1.85272 0.00106662 1.21193 0.355554 0.739301 0.985702C0.266673 1.61585 0.000799997 2.4702 0 3.36137V13.6228C0.000799997 14.514 0.266673 15.3683 0.739301 15.9985C1.21193 16.6286 1.85272 16.9831 2.52112 16.9842H74.0426C74.711 16.9831 75.3518 16.6286 75.8245 15.9985C76.2971 15.3683 76.563 14.514 76.5638 13.6228V3.36137C76.563 2.4702 76.2971 1.61585 75.8245 0.985702C75.3518 0.355554 74.711 0.00106662 74.0426 0ZM76.2983 13.6228C76.2975 14.4201 76.0595 15.1844 75.6367 15.7481C75.2139 16.3119 74.6406 16.6291 74.0426 16.6303H2.52112C1.92314 16.6291 1.3499 16.3119 0.927065 15.7481C0.504228 15.1844 0.266292 14.4201 0.265412 13.6228V3.36137C0.266292 2.56409 0.504228 1.7998 0.927065 1.23604C1.3499 0.672279 1.92314 0.355043 2.52112 0.35387H74.0426C74.6406 0.355043 75.2139 0.672279 75.6367 1.23604C76.0595 1.7998 76.2975 2.56409 76.2983 3.36137V13.6228Z" fill="#13072F"/>
<path d="M74.0426 41.2218H2.52112C1.85272 41.2207 1.21193 40.8662 0.739301 40.2361C0.266673 39.6059 0.000799997 38.7516 0 37.8604V27.5992C0.000799997 26.708 0.266673 25.8536 0.739301 25.2235C1.21193 24.5933 1.85272 24.2389 2.52112 24.2378H74.0426C74.711 24.2389 75.3518 24.5933 75.8245 25.2235C76.2971 25.8536 76.563 26.708 76.5638 27.5992V37.8604C76.563 38.7516 76.2971 39.6059 75.8245 40.2361C75.3518 40.8662 74.711 41.2207 74.0426 41.2218ZM2.52112 24.5917C1.92308 24.5926 1.34973 24.9097 0.926846 25.4735C0.503966 26.0374 0.266092 26.8018 0.265412 27.5992V37.8604C0.265972 38.6579 0.503792 39.4225 0.926684 39.9864C1.34958 40.5504 1.923 40.8676 2.52112 40.8685H74.0426C74.6407 40.8677 75.2141 40.5505 75.637 39.9867C76.0599 39.4229 76.2978 38.6584 76.2985 37.861V27.5992C76.2978 26.8018 76.06 26.0374 75.6371 25.4735C75.2142 24.9097 74.6408 24.5926 74.0428 24.5917H2.52112Z" fill="#210070" fill-opacity="0.62"/>
<path d="M74.0426 65.4593H2.52112C1.85272 65.4583 1.21193 65.1038 0.739301 64.4736C0.266673 63.8435 0.000799997 62.9891 0 62.098V51.8367C0.000799997 50.9455 0.266673 50.0912 0.739301 49.461C1.21193 48.8309 1.85272 48.4764 2.52112 48.4753H74.0426C74.711 48.4764 75.3518 48.8309 75.8245 49.461C76.2971 50.0912 76.563 50.9455 76.5638 51.8367V62.098C76.563 62.9891 76.2971 63.8435 75.8245 64.4736C75.3518 65.1038 74.711 65.4583 74.0426 65.4593ZM2.52112 48.8284C1.92308 48.8293 1.34973 49.1465 0.926846 49.7103C0.503966 50.2741 0.266092 51.0385 0.265412 51.8359V62.0971C0.266052 62.8945 0.503909 63.659 0.926793 64.2229C1.34968 64.7868 1.92305 65.1039 2.52112 65.1048H74.0426C74.6407 65.104 75.2141 64.7869 75.637 64.223C76.0599 63.6592 76.2978 62.8947 76.2985 62.0974V51.8367C76.298 51.0392 76.0602 50.2745 75.6372 49.7105C75.2143 49.1465 74.6408 48.8293 74.0426 48.8284H2.52112Z" fill="#210070" fill-opacity="0.63"/>
<path d="M12.1852 14.3427C11.3173 14.3427 10.4689 13.9996 9.74731 13.3567C9.0257 12.7138 8.46327 11.8001 8.13115 10.7311C7.79902 9.66202 7.71212 8.48567 7.88144 7.35077C8.05075 6.21587 8.46868 5.17341 9.08236 4.35519C9.69604 3.53698 10.4779 2.97977 11.3291 2.75402C12.1803 2.52828 13.0626 2.64414 13.8644 3.08695C14.6663 3.52977 15.3516 4.27964 15.8338 5.24176C16.3159 6.20388 16.5733 7.33503 16.5733 8.49216C16.5733 10.0438 16.111 11.5319 15.288 12.6291C14.4651 13.7263 13.349 14.3427 12.1852 14.3427Z" fill="#210070"/>
<path d="M67.5639 13.2688H20.7237C20.4421 13.2688 20.1721 13.1196 19.973 12.8542C19.774 12.5888 19.6621 12.2288 19.6621 11.8534C19.6621 11.478 19.774 11.118 19.973 10.8525C20.1721 10.5871 20.4421 10.438 20.7237 10.438H67.5639C67.8455 10.438 68.1155 10.5871 68.3146 10.8525C68.5137 11.118 68.6255 11.478 68.6255 11.8534C68.6255 12.2288 68.5137 12.5888 68.3146 12.8542C68.1155 13.1196 67.8455 13.2688 67.5639 13.2688Z" fill="#210070"/>
<path d="M52.3035 7.25362H20.7227C20.4412 7.25362 20.1711 7.10449 19.9721 6.83906C19.773 6.57362 19.6611 6.21362 19.6611 5.83823C19.6611 5.46285 19.773 5.10284 19.9721 4.83741C20.1711 4.57197 20.4412 4.42285 20.7227 4.42285H52.3035C52.5851 4.42285 52.8551 4.57197 53.0542 4.83741C53.2533 5.10284 53.3651 5.46285 53.3651 5.83823C53.3651 6.21362 53.2533 6.57362 53.0542 6.83906C52.8551 7.10449 52.5851 7.25362 52.3035 7.25362V7.25362Z" fill="#210070"/>
<path d="M12.1852 38.5803C11.3173 38.5803 10.4689 38.2371 9.74731 37.5943C9.0257 36.9514 8.46327 36.0377 8.13115 34.9686C7.79902 33.8996 7.71212 32.7232 7.88144 31.5883C8.05075 30.4534 8.46868 29.411 9.08236 28.5927C9.69604 27.7745 10.4779 27.2173 11.3291 26.9916C12.1803 26.7658 13.0626 26.8817 13.8644 27.3245C14.6663 27.7673 15.3516 28.5172 15.8338 29.4793C16.3159 30.4414 16.5733 31.5726 16.5733 32.7297C16.5733 34.2814 16.111 35.7695 15.288 36.8667C14.4651 37.9639 13.349 38.5803 12.1852 38.5803V38.5803Z" fill="#412584"/>
<path d="M67.5639 37.5065H20.7237C20.4421 37.5065 20.1721 37.3574 19.973 37.092C19.774 36.8266 19.6621 36.4665 19.6621 36.0912C19.6621 35.7158 19.774 35.3558 19.973 35.0903C20.1721 34.8249 20.4421 34.6758 20.7237 34.6758H67.5639C67.8455 34.6758 68.1155 34.8249 68.3146 35.0903C68.5137 35.3558 68.6255 35.7158 68.6255 36.0912C68.6255 36.4665 68.5137 36.8266 68.3146 37.092C68.1155 37.3574 67.8455 37.5065 67.5639 37.5065Z" fill="#412584"/>
<path d="M52.3035 31.4912H20.7227C20.4412 31.4912 20.1711 31.342 19.9721 31.0766C19.773 30.8112 19.6611 30.4512 19.6611 30.0758C19.6611 29.7004 19.773 29.3404 19.9721 29.075C20.1711 28.8095 20.4412 28.6604 20.7227 28.6604H52.3035C52.5851 28.6604 52.8551 28.8095 53.0542 29.075C53.2533 29.3404 53.3651 29.7004 53.3651 30.0758C53.3651 30.4512 53.2533 30.8112 53.0542 31.0766C52.8551 31.342 52.5851 31.4912 52.3035 31.4912V31.4912Z" fill="#210070" fill-opacity="0.85"/>
<path d="M12.1852 62.8178C11.3173 62.8178 10.4689 62.4747 9.74731 61.8318C9.0257 61.189 8.46327 60.2752 8.13115 59.2062C7.79902 58.1371 7.71212 56.9608 7.88144 55.8259C8.05075 54.691 8.46868 53.6485 9.08236 52.8303C9.69604 52.0121 10.4779 51.4549 11.3291 51.2291C12.1803 51.0034 13.0626 51.1192 13.8644 51.5621C14.6663 52.0049 15.3516 52.7547 15.8338 53.7169C16.3159 54.679 16.5733 55.8101 16.5733 56.9673C16.5733 58.5189 16.111 60.007 15.288 61.1042C14.4651 62.2014 13.349 62.8178 12.1852 62.8178V62.8178Z" fill="#412584"/>
<path d="M67.5639 61.7441H20.7237C20.4421 61.7441 20.1721 61.595 19.973 61.3295C19.774 61.0641 19.6621 60.7041 19.6621 60.3287C19.6621 59.9533 19.774 59.5933 19.973 59.3279C20.1721 59.0624 20.4421 58.9133 20.7237 58.9133H67.5639C67.8455 58.9133 68.1155 59.0624 68.3146 59.3279C68.5137 59.5933 68.6255 59.9533 68.6255 60.3287C68.6255 60.7041 68.5137 61.0641 68.3146 61.3295C68.1155 61.595 67.8455 61.7441 67.5639 61.7441Z" fill="#412584"/>
<path d="M52.3035 55.729H20.7227C20.4412 55.729 20.1711 55.5798 19.9721 55.3144C19.773 55.049 19.6611 54.689 19.6611 54.3136C19.6611 53.9382 19.773 53.5782 19.9721 53.3127C20.1711 53.0473 20.4412 52.8982 20.7227 52.8982H52.3035C52.5851 52.8982 52.8551 53.0473 53.0542 53.3127C53.2533 53.5782 53.3651 53.9382 53.3651 54.3136C53.3651 54.689 53.2533 55.049 53.0542 55.3144C52.8551 55.5798 52.5851 55.729 52.3035 55.729V55.729Z" fill="#412584"/>
<path d="M11.9612 10.5499C11.8522 10.5503 11.7461 10.5033 11.6589 10.4161L11.6534 10.4107L10.5161 9.25071C10.4634 9.19687 10.4192 9.12972 10.3859 9.0531C10.3527 8.97648 10.3312 8.89189 10.3225 8.80415C10.3138 8.71642 10.3181 8.62726 10.3353 8.54176C10.3524 8.45627 10.382 8.37612 10.4224 8.30588C10.4628 8.23565 10.5132 8.1767 10.5706 8.13242C10.6281 8.08813 10.6915 8.05937 10.7574 8.04778C10.8232 8.03619 10.89 8.04199 10.9542 8.06485C11.0183 8.08772 11.0784 8.1272 11.1311 8.18104L11.8678 8.93432L13.6085 5.90627C13.69 5.76454 13.8105 5.67177 13.9433 5.64838C14.0761 5.62499 14.2104 5.67288 14.3168 5.78153V5.78153L14.306 5.80168L14.3171 5.78153C14.4233 5.8904 14.4927 6.05098 14.5102 6.22804C14.5278 6.40511 14.4919 6.58421 14.4105 6.72606L12.3629 10.2861C12.3155 10.368 12.2545 10.4342 12.1848 10.4796C12.1151 10.5251 12.0385 10.5485 11.9609 10.5481L11.9612 10.5499Z" fill="white"/>
<path d="M112.849 106H82.9219C82.8818 106 82.8434 105.979 82.815 105.941C82.7867 105.903 82.7708 105.852 82.7708 105.798C82.7708 105.745 82.7867 105.694 82.815 105.656C82.8434 105.618 82.8818 105.597 82.9219 105.597H112.849C112.889 105.597 112.927 105.618 112.956 105.656C112.984 105.694 113 105.745 113 105.798C113 105.852 112.984 105.903 112.956 105.941C112.927 105.979 112.889 106 112.849 106Z" fill="#CCCCCC"/>
<path d="M99.206 37.354C99.206 37.354 98.7543 34.0236 97.7263 34.4215C96.6983 34.8194 94.0528 35.2265 94.0479 33.6581C94.043 32.0897 96.5381 30.7033 98.0092 30.891C99.4803 31.0786 101.982 31.6526 101.844 34.5942C101.734 36.4468 101.304 38.2406 100.589 39.8357L99.206 37.354Z" fill="#2F2E41"/>
</svg>
